# File created by Blade
# Date/Time:  Wed Jan 21 17:16:23 2015
# Frame Rate: 120.000 fps
#------------------------------------------------------
:FULLY-SPECIFIED
:DEGREES
639
root 21.828336 13.576664 -18.456106 -165.015526 -20.011264 -207.514785
Spine 62.672409 -16.400347 -7.679278
Head 11.939282 10.655168 1.837290
LeftShoulder 20.107509 -36.318756 5.559963
LeftArm 47.907463 39.548995 -54.307187
LeftForeArm 22.960448 0.000000 23.037960
LeftHand -4.928684 -0.000000 25.025204
LeftHandThumb1 -26.253704 0.000000 33.147579
RightShoulder 2.515248 -10.465175 11.655545
RightArm 41.183732 -4.825439 53.144261
RightForeArm -50.247114 -0.000000 31.709430
RightHand -9.970804 -0.000000 -31.968205
RightHandThumb1 -24.326973 -0.000000 -32.862282
LeftUpLeg -13.505169 30.269807 1.301417
LeftLeg 116.490723 -0.000000 -0.000000
LeftFoot 39.640374 14.674566 12.757999
LeftToeBase 39.000769 -0.000000 -0.000000
RightUpLeg -107.616870 -31.672559 55.630576
RightLeg 117.755658 -0.000000 -0.000000
RightFoot 41.164620 -7.460556 27.221361
RightToeBase 40.840491 -0.000000 -0.000000
640
root 21.875118 13.477544 -18.531065 -164.995416 -20.201672 -207.742826
Spine 62.668624 -16.127701 -7.877518
Head 12.138798 11.348305 1.964837
LeftShoulder 19.840211 -36.099061 5.708297
LeftArm 47.868110 39.685065 -54.384185
LeftForeArm 23.442672 0.000000 23.662977
LeftHand -4.949432 0.000000 25.291425
LeftHandThumb1 -26.253704 0.000000 33.147579
RightShoulder 2.198237 -11.372649 11.889834
RightArm 41.659688 -4.730251 53.089808
RightForeArm -50.097927 -0.000000 31.788027
RightHand -9.753456 -0.000000 -32.257437
RightHandThumb1 -24.326973 -0.000000 -32.862282
LeftUpLeg -13.262412 30.236325 1.846146
LeftLeg 116.698068 -0.000000 -0.000000
LeftFoot 39.698233 14.572394 13.675376
LeftToeBase 38.448904 -0.000000 -0.000000
RightUpLeg -107.773489 -31.668540 55.646915
RightLeg 118.125650 -0.000000 -0.000000
RightFoot 40.562780 -7.843515 27.526760
RightToeBase 40.940608 -0.000000 -0.000000
641
root 21.914543 13.372091 -18.589963 -164.835448 -20.385416 -208.058103
Spine 62.493147 -15.878205 -8.142067
Head 12.421207 11.925295 2.126569
LeftShoulder 19.590088 -35.745587 5.876653
LeftArm 47.884483 39.767203 -54.374600
LeftForeArm 23.916507 -0.000000 24.376559
LeftHand -5.213984 -0.000000 25.439890
LeftHandThumb1 -26.253704 0.000000 33.147579
RightShoulder 1.888099 -12.819289 12.153554
RightArm 42.503844 -4.376294 52.927765
RightForeArm -49.995795 0.000000 31.895367
RightHand -9.770318 0.000000 -32.655165
RightHandThumb1 -24.326973 -0.000000 -32.862282
LeftUpLeg -13.216225 30.203249 2.185121
LeftLeg 116.935674 -0.000000 -0.000000
LeftFoot 39.858202 14.630232 14.511128
LeftToeBase 37.287899 -0.000000 -0.000000
RightUpLeg -108.086032 -31.528070 55.575212
RightLeg 118.555494 -0.000000 -0.000000
RightFoot 40.241037 -8.045541 27.739619
RightToeBase 40.482483 -0.000000 -0.000000
642
root 21.950692 13.262592 -18.650589 -164.788103 -20.588068 -208.362681
Spine 62.341938 -15.584923 -8.430429
Head 12.866554 11.799534 2.418173
LeftShoulder 19.572710 -35.385896 5.962989
LeftArm 47.747689 39.764030 -54.418406
LeftForeArm 24.311797 0.000000 25.061907
LeftHand -5.460577 -0.000000 25.619183
LeftHandThumb1 -26.253704 0.000000 33.147579
RightShoulder 1.709828 -13.538668 12.284022
RightArm 42.599663 -4.374321 53.099179
RightForeArm -49.923784 -0.000000 31.945057
RightHand -9.672231 -0.000000 -33.100023
RightHandThumb1 -24.326973 -0.000000 -32.862282
LeftUpLeg -13.034803 30.136761 2.593606
LeftLeg 117.181099 -0.000000 -0.000000
LeftFoot 39.877554 14.339939 15.264047
LeftToeBase 37.310132 -0.000000 -0.000000
RightUpLeg -108.339158 -31.434817 55.503160
RightLeg 119.017055 -0.000000 -0.000000
RightFoot 39.831074 -8.310359 27.767190
RightToeBase 40.279173 -0.000000 -0.000000
